<?xml version="1.0" encoding="utf-8"?>
<!-- Generator: Adobe Illustrator 18.0.0, SVG Export Plug-In . SVG Version: 6.00 Build 0)  -->
<!DOCTYPE svg PUBLIC "-//W3C//DTD SVG 1.1//EN" "http://www.w3.org/Graphics/SVG/1.1/DTD/svg11.dtd">
<svg version="1.1" id="Layer_1" xmlns="http://www.w3.org/2000/svg" xmlns:xlink="http://www.w3.org/1999/xlink" x="0px" y="0px"
	 viewBox="0 0 19.1 19.1" enable-background="new 0 0 19.1 19.1" xml:space="preserve">
<g>
	<g>
		<rect x="2.6" y="13.9" fill="#666666" width="14.3" height="0.7"/>
	</g>
	<g>
		<path fill="#666666" d="M16.6,6.9H2.4C2.2,6.9,2,6.8,2,6.6V6.2C2,6,2.1,5.9,2.3,5.8l7.2-2.2c0.1,0,0.1,0,0.2,0l7.1,2.1
			C16.9,5.9,17,6,17,6.2v0.4C17,6.8,16.8,6.9,16.6,6.9z M3.6,6.2h11.9L9.6,4.4L3.6,6.2z"/>
	</g>
	<g>
		<g>
			<rect x="3.1" y="7.8" fill="#666666" width="0.7" height="5.1"/>
		</g>
		<g>
			<rect x="5.3" y="7.8" fill="#666666" width="0.7" height="5.1"/>
		</g>
		<g>
			<rect x="7.9" y="7.8" fill="#666666" width="0.7" height="5.1"/>
		</g>
		<g>
			<rect x="13" y="7.8" fill="#666666" width="0.7" height="5.1"/>
		</g>
		<g>
			<rect x="10.4" y="7.8" fill="#666666" width="0.7" height="5.1"/>
		</g>
		<g>
			<rect x="15.2" y="7.8" fill="#666666" width="0.7" height="5.1"/>
		</g>
	</g>
</g>
</svg>
