<?xml version="1.0" encoding="utf-8"?>
<!-- Generator: Adobe Illustrator 18.0.0, SVG Export Plug-In . SVG Version: 6.00 Build 0)  -->
<!DOCTYPE svg PUBLIC "-//W3C//DTD SVG 1.1//EN" "http://www.w3.org/Graphics/SVG/1.1/DTD/svg11.dtd">
<svg version="1.1" id="Layer_1" xmlns="http://www.w3.org/2000/svg" xmlns:xlink="http://www.w3.org/1999/xlink" x="0px" y="0px"
	 viewBox="0 0 82 59.9" enable-background="new 0 0 82 59.9" xml:space="preserve">
<g>
	<g>
		<rect x="3" y="55.9" fill="#F2F2F2" width="78" height="4"/>
	</g>
	<g>
		<path fill="#F2F2F2" d="M80,17.9H2c-1.1,0-2-0.9-2-2v-2c0-0.9,0.6-1.7,1.4-1.9L40.8,0.1C41.2,0,41.6,0,42,0.1l38.6,11.7
			c0.8,0.3,1.4,1,1.4,1.9v2.2C82,17,81.1,17.9,80,17.9z M9,13.9h64.8L41.4,4.1L9,13.9z"/>
	</g>
	<g>
		<g>
			<rect x="6" y="22.9" fill="#F2F2F2" width="4" height="28"/>
		</g>
		<g>
			<rect x="18" y="22.9" fill="#F2F2F2" width="4" height="28"/>
		</g>
		<g>
			<rect x="32" y="22.9" fill="#F2F2F2" width="4" height="28"/>
		</g>
		<g>
			<rect x="60" y="22.9" fill="#F2F2F2" width="4" height="28"/>
		</g>
		<g>
			<rect x="46" y="22.9" fill="#F2F2F2" width="4" height="28"/>
		</g>
		<g>
			<rect x="72" y="22.9" fill="#F2F2F2" width="4" height="28"/>
		</g>
	</g>
</g>
</svg>
