<?xml version="1.0" encoding="utf-8"?>
<!-- Generator: Adobe Illustrator 18.0.0, SVG Export Plug-In . SVG Version: 6.00 Build 0)  -->
<!DOCTYPE svg PUBLIC "-//W3C//DTD SVG 1.1//EN" "http://www.w3.org/Graphics/SVG/1.1/DTD/svg11.dtd">
<svg version="1.1" id="Layer_1" xmlns="http://www.w3.org/2000/svg" xmlns:xlink="http://www.w3.org/1999/xlink" x="0px" y="0px"
	 viewBox="0 0 300 300" enable-background="new 0 0 300 300" xml:space="preserve">
<g>
	<g>
		<rect x="41.7" y="230.6" fill="#D6D6D6" width="224.6" height="11"/>
	</g>
	<g>
		<path fill="#D6D6D6" d="M261.5,120.7h-223c-3.2,0-6.3-1.6-6.3-4.7v-6.3c0-3.2,1.5-4.7,4.7-6.3L150,68.8c1.6,0,1.6,0,3.1,0
			l111.5,33c1.5,3.2,3.1,4.7,3.1,7.8v6.3C267.8,119.1,264.7,120.7,261.5,120.7z M57.4,109.7h186.9l-92.6-28.2L57.4,109.7z"/>
	</g>
	<g>
		<g>
			<rect x="49.5" y="134.8" fill="#D6D6D6" width="11" height="80.1"/>
		</g>
		<g>
			<rect x="84.1" y="134.8" fill="#D6D6D6" width="11" height="80.1"/>
		</g>
		<g>
			<rect x="124.9" y="134.8" fill="#D6D6D6" width="11" height="80.1"/>
		</g>
		<g>
			<rect x="205" y="134.8" fill="#D6D6D6" width="11" height="80.1"/>
		</g>
		<g>
			<rect x="164.1" y="134.8" fill="#D6D6D6" width="11" height="80.1"/>
		</g>
		<g>
			<rect x="239.6" y="134.8" fill="#D6D6D6" width="11" height="80.1"/>
		</g>
	</g>
</g>
</svg>
