<?xml version="1.0" encoding="utf-8"?>
<!-- Generator: Adobe Illustrator 18.0.0, SVG Export Plug-In . SVG Version: 6.00 Build 0)  -->
<!DOCTYPE svg PUBLIC "-//W3C//DTD SVG 1.1//EN" "http://www.w3.org/Graphics/SVG/1.1/DTD/svg11.dtd">
<svg version="1.1" id="Layer_1" xmlns="http://www.w3.org/2000/svg" xmlns:xlink="http://www.w3.org/1999/xlink" x="0px" y="0px"
	 viewBox="0 0 96.8 62.3" enable-background="new 0 0 96.8 62.3" xml:space="preserve">
<g>
	<path fill="#F2F2F2" d="M63.3,0c-0.4,0-0.8,0.1-1.2,0.3l0-0.1c-0.1,0.1-14.4,7.9-24,11c-10.9,3.3-18.5,4.8-24.5,4.8
		C6.1,16.1,0,22.2,0,29.7c0,7.5,6.1,13.5,13.6,13.5c0.5,0,0.6,0,1.6,0l0,0l0.4,1l4.4,16.4c0.2,0.9,1,1.6,1.9,1.6h8.5
		c0.6,0,1.2-0.2,1.6-0.7c0.4-0.5,0.5-1.1,0.3-1.7l-4.2-14.6c3,0.7,6.2,1.6,9.9,2.7c8.3,2.6,20.3,9,23.3,10.6c0.6,0.5,1.2,0.7,2,0.7
		c6.1,0,6.7-20.8,6.7-29.7C70,18.6,69.1,0,63.3,0z M4,29.7c0-5.3,4.4-9.6,9.6-9.6c0.5,0,0.6,0,1.6,0v19.2c-1,0-1.1,0-1.6,0
		C8.3,39.2,4,35,4,29.7z M27.8,58.3h-4.3l-4-14.8c1.3,0.2,2.7,0.3,4.2,0.6L27.8,58.3z M19.2,39.5V19.7c5-0.6,11.7-2.1,20.1-4.7
		c6.2-2,14.1-5.8,19.2-8.4c-1.7,6.4-2,16.2-2,23.1c0,7.7,0.5,14.9,1.4,20.2c0.2,1,0.4,1.9,0.6,2.8c-5.2-2.7-13-6.5-19.2-8.4
		C30.9,41.6,24.2,40.2,19.2,39.5z M63.3,54.5c-1.2-2.9-2.7-11.2-2.7-24.8c0-14.5,1.6-22.3,2.7-24.9C64.4,7.4,66,15.2,66,29.7
		C66,43.3,64.5,51.6,63.3,54.5z"/>
	<path fill="#F2F2F2" d="M85.9,9C85.8,9,85.8,9,85.9,9C85.8,9,85.4,9,85.9,9z"/>
	<path fill="#F2F2F2" d="M86.2,5v4v0.2c2,1.5,6.2,9.2,6.2,20.4c0,11.3-4.3,19-6.2,20.4v0.2v4c4,0,10.6-11.3,10.6-24.6
		C96.8,16.4,90.2,5,86.2,5z"/>
	<path fill="#F2F2F2" d="M77.2,10.4v4v0.1c1.2,1,4.4,6.5,4.4,15.2c0,8.6-3.1,14.1-4.4,15.1v0.1v4c4,0,8.2-9.4,8.2-19.2
		C85.4,19.8,81.2,10.4,77.2,10.4z"/>
</g>
</svg>
