<?xml version="1.0" encoding="utf-8"?>
<!-- Generator: Adobe Illustrator 18.0.0, SVG Export Plug-In . SVG Version: 6.00 Build 0)  -->
<!DOCTYPE svg PUBLIC "-//W3C//DTD SVG 1.1//EN" "http://www.w3.org/Graphics/SVG/1.1/DTD/svg11.dtd">
<svg version="1.1" id="Layer_1" xmlns="http://www.w3.org/2000/svg" xmlns:xlink="http://www.w3.org/1999/xlink" x="0px" y="0px"
	 viewBox="0 0 17.1 24.5" enable-background="new 0 0 17.1 24.5" xml:space="preserve">
<g>
	<g>
		<path d="M8.6,0C3.8,0,0,3.8,0,8.6c0,4.6,7.9,15.3,8.2,15.8c0.1,0.1,0.2,0.2,0.3,0.2c0.1,0,0.3-0.1,0.3-0.2
			c0.3-0.5,8.2-11.2,8.2-15.8C17.1,3.8,13.3,0,8.6,0z M8.6,12.4c-2.1,0-3.9-1.7-3.9-3.9c0-2.1,1.7-3.9,3.9-3.9
			c2.1,0,3.9,1.7,3.9,3.9C12.4,10.7,10.7,12.4,8.6,12.4z"/>
	</g>
</g>
</svg>
