<?xml version="1.0" encoding="utf-8"?>
<!-- Generator: Adobe Illustrator 18.0.0, SVG Export Plug-In . SVG Version: 6.00 Build 0)  -->
<!DOCTYPE svg PUBLIC "-//W3C//DTD SVG 1.1//EN" "http://www.w3.org/Graphics/SVG/1.1/DTD/svg11.dtd">
<svg version="1.1" id="Layer_1" xmlns="http://www.w3.org/2000/svg" xmlns:xlink="http://www.w3.org/1999/xlink" x="0px" y="0px"
	 viewBox="0 0 300 300" enable-background="new 0 0 300 300" xml:space="preserve">
<g>
	<g>
		<path fill="#D6D6D6" d="M199.5,43.2h-97.4c-7.8,0-14.2,4.7-14.2,12.5v17.3v1.6v1.6v138.2v1.6v1.6V241c0,7.9,6.3,15.7,14.2,15.7
			h97.4c7.9,0,12.6-7.9,12.6-15.7V55.8C212.1,47.9,207.4,43.2,199.5,43.2z M97.4,80.9h105.2v132H97.4V80.9z M102.1,54.2h97.4
			c1.6,0,3.1,0,3.1,1.5v15.7H97.4V55.7C97.4,54.2,100.5,54.2,102.1,54.2z M199.5,247.4h-97.4c-1.5,0-4.7-3.1-4.7-4.7v-18.9h105.2
			v18.9C202.6,242.6,201.1,247.4,199.5,247.4z"/>
		<path fill="#D6D6D6" d="M157.1,230.1h-11c-3.2,0-4.7,3.1-4.7,4.7s1.6,4.7,4.7,4.7h11c3.2,0,4.7-3.1,4.7-4.7
			C161.8,233.2,158.6,230.1,157.1,230.1z"/>
	</g>
</g>
</svg>
