<?xml version="1.0" encoding="utf-8"?>
<!-- Generator: Adobe Illustrator 18.0.0, SVG Export Plug-In . SVG Version: 6.00 Build 0)  -->
<!DOCTYPE svg PUBLIC "-//W3C//DTD SVG 1.1//EN" "http://www.w3.org/Graphics/SVG/1.1/DTD/svg11.dtd">
<svg version="1.1" id="Layer_1" xmlns="http://www.w3.org/2000/svg" xmlns:xlink="http://www.w3.org/1999/xlink" x="0px" y="0px"
	 viewBox="0 0 19.1 19.1" enable-background="new 0 0 19.1 19.1" xml:space="preserve">
<g>
	<path fill="#666666" d="M12,14c0.1,0.1,0.2,0.1,0.3,0.1c1.1,0,1.2-3.7,1.2-5.2c0-2-0.2-5.2-1.2-5.2c-0.1,0-0.1,0-0.2,0.1l0,0
		c0,0-2.5,1.4-4.2,1.9C6,6.2,4.7,6.5,3.6,6.5c-1.3,0-2.4,1.1-2.4,2.4c0,1.3,1.1,2.4,2.4,2.4c0.1,0,0.1,0,0.3,0L4,11.5l0.8,2.9
		c0,0.2,0.2,0.4,0.4,0.4h1.5c0.1,0,0.2,0,0.3-0.1c0.1-0.1,0-0.4,0-0.5l-0.7-2.6c0.5,0.1,1.1,0.3,1.7,0.5C9.4,12.6,11.5,13.7,12,14z
		 M12.4,4.5c0.2,0.5,0.5,1.8,0.5,4.4c0,2.4-0.3,3.9-0.5,4.4c-0.2-0.5-0.5-2-0.5-4.4C11.9,6.4,12.2,5,12.4,4.5z M6.3,14.2H5.4
		l-0.7-2.8c0.2,0,0.4,0.1,0.8,0.2L6.3,14.2z M4.3,10.6c0,0-0.4,0-0.5,0c-0.9,0-1.9-0.7-1.9-1.7c0-0.9,1-1.7,1.9-1.7
		c0.1,0,0.5,0,0.5,0c1-0.1,2.2-0.4,3.7-0.9c1.1-0.4,2.6-1,3.5-1.5c-0.3,1.1-0.3,2.9-0.3,4.1c0,1.4,0.1,2.6,0.3,3.6
		c0,0.2,0.1,0.3,0.1,0.5c-0.9-0.5-2.5-1.1-3.6-1.5C6.5,11,5.3,10.7,4.3,10.6z"/>
	<path fill="#666666" d="M15.3,11.6v0.7c0.5,0,1.4-1.7,1.4-3.4c0-1.7-0.9-3.4-1.4-3.4v0.7v0c0,0.2,0.8,1.1,0.8,2.7
		C16,10.4,15.3,11.4,15.3,11.6L15.3,11.6z"/>
	<path fill="#666666" d="M16.3,4.6v0.7v0c0,0.3,1.1,1.6,1.1,3.6c0,2-1.1,3.4-1.1,3.6v0v0.7c0.4,0,1.9-2,1.9-4.3
		C18.1,6.6,16.7,4.6,16.3,4.6z M16.4,5.3C16.4,5.3,16.4,5.3,16.4,5.3C16.3,5.3,16.4,5.3,16.4,5.3z"/>
</g>
</svg>
