<?xml version="1.0" encoding="utf-8"?>
<!-- Generator: Adobe Illustrator 18.0.0, SVG Export Plug-In . SVG Version: 6.00 Build 0)  -->
<!DOCTYPE svg PUBLIC "-//W3C//DTD SVG 1.1//EN" "http://www.w3.org/Graphics/SVG/1.1/DTD/svg11.dtd">
<svg version="1.1" id="Layer_1" xmlns="http://www.w3.org/2000/svg" xmlns:xlink="http://www.w3.org/1999/xlink" x="0px" y="0px"
	 viewBox="0 0 300 300" enable-background="new 0 0 300 300" xml:space="preserve">
<g>
	<path fill="#D6D6D6" d="M186.1,224.6c1.6,1.6,3.1,1.6,4.7,1.6c17.3,0,18.9-58.1,18.9-81.7c0-31.4-3.1-81.7-18.8-81.7
		c-1.6,0-1.6,0-3.2,1.6l0,0c0,0-39.2,22-65.9,29.8c-29.9,7.9-50.3,12.6-67.6,12.6c-20.4,0-37.7,17.3-37.7,37.7s17.3,37.7,37.7,37.7
		c1.5,0,1.5,0,4.7,0l1.5,3.1L73,230.9c0,3.1,3.2,6.3,6.3,6.3h23.5c1.6,0,3.2,0,4.7-1.6c1.6-1.6,0-6.3,0-7.9l-11-40.9
		c7.9,1.6,17.3,4.7,26.7,7.9C145.3,202.6,178.3,219.9,186.1,224.6z M192.4,75.4c3.2,7.8,7.9,28.2,7.9,69.1c0,37.7-4.7,61.2-7.9,69.1
		c-3.1-7.9-7.8-31.4-7.8-69.1C184.6,105.2,189.3,83.2,192.4,75.4z M96.6,227.8H82.5l-11-44c3.2,0,6.3,1.6,12.5,3.1L96.6,227.8z
		 M65.2,171.2c0,0-6.3,0-7.8,0c-14.2,0-29.8-11-29.8-26.7c0-14.1,15.7-26.7,29.8-26.7c1.6,0,7.9,0,7.9,0
		c15.7-1.6,34.5-6.3,58.1-14.2c17.3-6.3,40.8-15.7,54.9-23.5c-4.7,17.3-4.7,45.6-4.7,64.4c0,22,1.6,40.9,4.7,56.6
		c0,3.1,1.6,4.7,1.6,7.9c-14.2-7.9-39.2-17.3-56.6-23.6C99.7,177.5,80.9,172.8,65.2,171.2z"/>
	<path fill="#D6D6D6" d="M238,186.9v11c7.9,0,22-26.7,22-53.4s-14.1-53.4-22-53.4v11l0,0c0,3.2,12.6,17.3,12.6,42.4
		C249,168.1,238,183.8,238,186.9L238,186.9z"/>
	<path fill="#D6D6D6" d="M253.7,76.9v11l0,0c0,4.7,17.3,25.2,17.3,56.6s-17.3,53.4-17.3,56.6l0,0v11c6.3,0,29.9-31.4,29.9-67.6
		C281.9,108.4,260,76.9,253.7,76.9z M255.2,87.9L255.2,87.9C253.7,87.9,255.2,87.9,255.2,87.9z"/>
</g>
</svg>
