<?xml version="1.0" encoding="utf-8"?>
<!-- Generator: Adobe Illustrator 18.0.0, SVG Export Plug-In . SVG Version: 6.00 Build 0)  -->
<!DOCTYPE svg PUBLIC "-//W3C//DTD SVG 1.1//EN" "http://www.w3.org/Graphics/SVG/1.1/DTD/svg11.dtd">
<svg version="1.1" id="Layer_1" xmlns="http://www.w3.org/2000/svg" xmlns:xlink="http://www.w3.org/1999/xlink" x="0px" y="0px"
	 viewBox="0 0 300 300" enable-background="new 0 0 300 300" xml:space="preserve">
<g>
	<path fill="#FFFFFF" d="M186.1,224.6c1.5,1.6,3.1,1.6,4.7,1.6c17.3,0,18.9-58.1,18.9-81.7c0-31.4-3.1-81.7-18.9-81.7
		c-1.5,0-1.5,0-3.1,1.6l0,0c0,0-39.2,22-65.9,29.8c-29.8,7.9-50.2,12.6-67.5,12.6c-20.4,0-37.7,17.3-37.7,37.7s17.3,37.7,37.7,37.7
		c1.5,0,1.5,0,4.7,0l1.5,3.2l12.5,45.5c0,3.1,3.2,6.3,6.3,6.3h23.6c1.5,0,3.1,0,4.7-1.6s0-6.3,0-7.9l-11-40.9
		c7.8,1.6,17.3,4.7,26.7,7.9C145.2,202.6,178.2,219.9,186.1,224.6z M192.4,75.4c3.2,7.8,7.9,28.2,7.9,69.1c0,37.7-4.7,61.2-7.9,69.1
		c-3.1-7.9-7.8-31.4-7.8-69.1C184.6,105.3,189.2,83.3,192.4,75.4z M96.6,227.8H82.4l-11-44c3.2,0,6.3,1.6,12.6,3.1L96.6,227.8z
		 M65.2,171.2c0,0-6.3,0-7.9,0c-14.1,0-29.9-11-29.9-26.7c0-14.1,15.7-26.7,29.8-26.7c1.6,0,7.8,0,7.8,0
		c15.7-1.6,34.6-6.3,58.2-14.2c17.3-6.3,40.8-15.7,54.9-23.6c-4.7,17.3-4.7,45.6-4.7,64.4c0,22,1.6,40.9,4.7,56.6
		c0,3.1,1.6,4.7,1.6,7.9c-14.2-7.8-39.2-17.3-56.6-23.6C99.7,177.5,80.8,172.8,65.2,171.2z"/>
	<path fill="#FFFFFF" d="M237.9,186.9v11c7.9,0,22-26.7,22-53.4s-14.2-53.4-22-53.4v11l0,0c0,3.2,12.6,17.3,12.6,42.4
		C248.9,168.1,237.9,183.8,237.9,186.9L237.9,186.9z"/>
	<path fill="#FFFFFF" d="M253.7,77v11l0,0c0,4.7,17.3,25.2,17.3,56.6s-17.3,53.4-17.3,56.6l0,0v11c6.3,0,29.8-31.4,29.8-67.6
		C282,108.4,260,77,253.7,77z M255.2,88L255.2,88C253.7,88,255.2,88,255.2,88z"/>
</g>
</svg>
