<?xml version="1.0" encoding="utf-8"?>
<!-- Generator: Adobe Illustrator 18.0.0, SVG Export Plug-In . SVG Version: 6.00 Build 0)  -->
<!DOCTYPE svg PUBLIC "-//W3C//DTD SVG 1.1//EN" "http://www.w3.org/Graphics/SVG/1.1/DTD/svg11.dtd">
<svg version="1.1" id="Layer_1" xmlns="http://www.w3.org/2000/svg" xmlns:xlink="http://www.w3.org/1999/xlink" x="0px" y="0px"
	 viewBox="0 0 2000 1500" enable-background="new 0 0 2000 1500" xml:space="preserve">
<path d="M540.2,1500H227.7V482.1h312.5V1500z M379.5,357.1L379.5,357.1c-125,0-196.4-80.4-196.4-178.6S263.4,0,379.5,0
	S567,80.4,575.9,178.6C567,276.8,495.5,357.1,379.5,357.1z M1817,1500h-357.1V973.2c0-133.9-53.6-232.1-178.6-232.1
	c-98.2,0-151.8,62.5-169.6,125c-8.9,17.9-8.9,53.6-8.9,80.4V1500H745.5c0,0,8.9-937.5,0-1017.9h357.1v160.7
	c17.9-71.4,133.9-169.6,321.4-169.6c223.2,0,401.8,142.9,401.8,464.3V1500H1817z"/>
</svg>
