<?xml version="1.0" encoding="utf-8"?>
<!-- Generator: Adobe Illustrator 18.0.0, SVG Export Plug-In . SVG Version: 6.00 Build 0)  -->
<!DOCTYPE svg PUBLIC "-//W3C//DTD SVG 1.1//EN" "http://www.w3.org/Graphics/SVG/1.1/DTD/svg11.dtd">
<svg version="1.1" id="Layer_1" xmlns="http://www.w3.org/2000/svg" xmlns:xlink="http://www.w3.org/1999/xlink" x="0px" y="0px"
	 viewBox="0 0 19.7 16" enable-background="new 0 0 19.7 16" xml:space="preserve">
<g>
	<path fill-rule="evenodd" clip-rule="evenodd" fill="#808080" d="M13.4,0c1.6,0,2.4,0.5,3.2,1.3c0.7-0.1,1.6-0.4,2.1-0.7
		c0.2-0.1,0.3-0.2,0.5-0.3c-0.3,0.8-0.7,1.4-1.3,1.9c-0.1,0.1-0.3,0.2-0.4,0.3v0c0.9,0,1.6-0.4,2.3-0.6v0c-0.4,0.6-0.8,1.2-1.4,1.6
		c-0.2,0.2-0.4,0.3-0.6,0.5c0,0.9,0,1.8-0.2,2.6c-1,4.5-3.7,7.6-7.9,8.9c-1.5,0.5-4,0.7-5.7,0.2c-0.9-0.2-1.6-0.5-2.4-0.8
		c-0.4-0.2-0.8-0.4-1.1-0.6c-0.1-0.1-0.2-0.1-0.4-0.2c0.4,0,0.9,0.1,1.3,0c0.4-0.1,0.8,0,1.2-0.1c0.9-0.2,1.7-0.5,2.4-0.9
		C5.2,13,5.7,12.8,6,12.5c-0.5,0-0.9-0.1-1.2-0.2c-1.3-0.5-2.1-1.3-2.6-2.6c0.4,0,1.5,0.1,1.8-0.1c-0.5,0-1-0.3-1.3-0.5
		c-1-0.7-1.9-1.8-1.9-3.5c0.1,0.1,0.3,0.1,0.4,0.2C1.5,5.9,1.7,6,2,6c0.1,0,0.4,0.1,0.6,0h0C2.4,5.9,2,5.7,1.8,5.4
		C1.2,4.6,0.5,3.3,0.9,1.8c0.1-0.4,0.3-0.7,0.4-1l0,0C1.5,0.9,1.6,1,1.7,1.2C2.1,1.6,2.5,2,2.9,2.3c1.5,1.2,2.8,1.9,4.9,2.4
		C8.4,4.8,9,4.9,9.7,4.9C9.5,4.4,9.6,3.6,9.7,3c0.4-1.3,1.1-2.2,2.3-2.7c0.3-0.1,0.6-0.2,0.9-0.3C13,0,13.2,0,13.4,0"/>
</g>
</svg>
