<?xml version="1.0" encoding="utf-8"?>
<!-- Generator: Adobe Illustrator 18.0.0, SVG Export Plug-In . SVG Version: 6.00 Build 0)  -->
<!DOCTYPE svg PUBLIC "-//W3C//DTD SVG 1.1//EN" "http://www.w3.org/Graphics/SVG/1.1/DTD/svg11.dtd">
<svg version="1.1" id="Layer_1" xmlns="http://www.w3.org/2000/svg" xmlns:xlink="http://www.w3.org/1999/xlink" x="0px" y="0px"
	 viewBox="0 0 2000 1500" enable-background="new 0 0 2000 1500" xml:space="preserve">
<g>
	<path d="M1332.8,0c150,0,225,46.9,300,121.9c65.6-9.4,150-37.5,196.9-65.6c18.8-9.4,28.1-18.8,46.9-28.1
		c-28.1,75-65.6,131.2-121.9,178.1c-9.4,9.4-28.1,18.8-37.5,28.1l0,0c84.4,0,150-37.5,215.6-56.3l0,0c-37.5,56.3-75,112.5-131.2,150
		c-18.8,18.8-37.5,28.1-56.3,46.9c0,84.4,0,168.8-18.8,243.7c-93.8,421.9-346.9,712.5-740.6,834.4c-140.6,46.9-375,65.6-534.4,18.8
		c-84.4-18.8-150-46.9-225-75c-37.5-18.8-75-37.5-103.1-56.2c-9.4-9.4-18.8-9.4-37.5-18.8c37.5,0,84.4,9.4,121.9,0s75,0,112.5-9.4
		c84.4-18.8,159.4-46.9,225-84.4c18.7-9.4,65.6-28.1,93.7-56.2c-46.9,0-84.4-9.4-112.5-18.8c-121.9-46.9-196.9-121.9-243.7-243.7
		c37.5,0,140.6,9.4,168.7-9.4c-46.9,0-93.8-28.1-121.9-46.9C235.9,787.5,151.6,684.4,151.6,525c9.4,9.4,28.1,9.4,37.5,18.7
		c28.1,9.4,46.9,18.8,75,18.8c9.4,0,37.5,9.4,56.2,0l0,0c-18.8-9.4-56.2-28.1-75-56.2c-56.2-75-121.9-196.9-84.4-337.5
		c9.4-37.5,28.1-65.6,37.5-93.8l0,0c18.8,9.4,28.1,18.8,37.5,37.5c37.5,37.5,75,75,112.5,103.1c140.6,112.5,262.5,178.1,459.4,225
		c56.2,9.4,112.5,18.8,178.1,18.8c-18.8-46.9-9.4-121.9,0-178.1c37.5-121.9,103.1-206.2,215.6-253.1c28.1-9.4,56.2-18.8,84.4-28.1
		C1295.3,0,1314.1,0,1332.8,0"/>
</g>
</svg>
