<?xml version="1.0" encoding="utf-8"?>
<!-- Generator: Adobe Illustrator 18.0.0, SVG Export Plug-In . SVG Version: 6.00 Build 0)  -->
<!DOCTYPE svg PUBLIC "-//W3C//DTD SVG 1.1//EN" "http://www.w3.org/Graphics/SVG/1.1/DTD/svg11.dtd">
<svg version="1.1" id="Layer_1" xmlns="http://www.w3.org/2000/svg" xmlns:xlink="http://www.w3.org/1999/xlink" x="0px" y="0px"
	 viewBox="0 0 43.1 73" enable-background="new 0 0 43.1 73" xml:space="preserve">
<g>
	<path fill="#F2F2F2" d="M38.2,0H5.1C2.4,0,0.1,1.9,0.1,4.7v5.8C0.1,10.7,0,10.8,0,11s0.1,0.3,0.1,0.5v47C0.1,58.7,0,58.8,0,59
		s0.1,0.3,0.1,0.5v8.1c0,2.8,2.3,5.4,5.1,5.4h33.1c2.8,0,4.9-2.6,4.9-5.4v-63C43.1,1.9,41,0,38.2,0z M4.1,13h35v44h-35V13z M5.1,4
		h33.1c0.5,0,0.9,0.1,0.9,0.7V9h-35V4.7C4.1,4.1,4.6,4,5.1,4z M38.2,69H5.1c-0.5,0-1.1-0.8-1.1-1.4V61h35v6.6
		C39.1,68.2,38.7,69,38.2,69z"/>
	<path fill="#F2F2F2" d="M24.1,63h-4c-1.1,0-2,0.9-2,2s0.9,2,2,2h4c1.1,0,2-0.9,2-2S25.2,63,24.1,63z"/>
</g>
</svg>
